<svg id="Capa_1" data-name="Capa 1" xmlns="http://www.w3.org/2000/svg" viewBox="0 0 14.37 17.59"><defs><style>.cls-1{fill:#1b1b1b;}</style></defs><path class="cls-1" d="M16.12,5.86c-.82-1.76-2.23-1.29-3-1l-.2.06a1,1,0,0,1-.79,0c0-.33-.05-.65-.09-1l-.17-1.21c0-.28-.24-.52-.62-.72l0-.18a.5.5,0,0,0,.06-.45.48.48,0,0,0-.25-.27.54.54,0,0,0-.16-.33.51.51,0,0,0-.34-.14.7.7,0,0,0-.32-.34A.55.55,0,0,0,9.6.38a.45.45,0,0,0-.23,0,.58.58,0,0,0-.21.07,9.11,9.11,0,0,0-2.49.66c-.21.07-.39.14-.48.16a4.14,4.14,0,0,1-.89.06,4.12,4.12,0,0,0-2.57.59c-.7.66-.51,1.74-.34,2.7q.06.3.09.57a3.39,3.39,0,0,1-.14,1.19c-.16.73-.35,1.57.42,1.92L3,8.33v6.11a1.65,1.65,0,0,0,.47,1.1c.08,1.37,1.68,2.25,4.14,2.26s4.06-.89,4.14-2.26a1.68,1.68,0,0,0,.3-.43.56.56,0,0,0,.19-.09.47.47,0,0,0,.15-.13A5.1,5.1,0,0,0,16,11.7C16.47,10.56,16.94,7.63,16.12,5.86ZM12.5,14.42a1.45,1.45,0,0,0,0-.3,1.19,1.19,0,0,1-.11.26.89.89,0,0,1-.16.21.46.46,0,0,1-.13.08,1.79,1.79,0,0,0,0-.23V13l.12.09a1.29,1.29,0,0,1,.33.58,4.56,4.56,0,0,0,1.89-1.63,5,5,0,0,0,.63-1.36.13.13,0,0,0,0-.06A4.86,4.86,0,0,0,15.33,9c0-1.77-.41-2.82-1.12-3L14,5.9a1.48,1.48,0,0,0-1.11.19h-.51a.62.62,0,0,1-.17.57c0-.34,0-.47-.14-.49V5.37a.92.92,0,0,1,.22.35.74.74,0,0,0,.05-.47A1.58,1.58,0,0,0,13,5.18l.2-.07c.76-.25,1.91-.63,2.61.88.78,1.69.32,4.49-.15,5.59a5,5,0,0,1-3.21,3A.59.59,0,0,0,12.5,14.42Zm-1.72,2c0,.15-.25.34-.38.41a5.34,5.34,0,0,1-2.84.6,6.51,6.51,0,0,1-2.31-.34c-.19-.07-.58-.32-.63-.52a.09.09,0,0,1,.07-.12A7.45,7.45,0,0,0,7.56,17a7.19,7.19,0,0,0,3.12-.6.07.07,0,0,1,.1.07Zm-8-11.33c0-.19-.06-.38-.1-.58-.16-.93-.33-1.89.26-2.45a4,4,0,0,1,2.39-.51,4.85,4.85,0,0,0,1-.07,4.15,4.15,0,0,0,.51-.17A9.88,9.88,0,0,1,8.94.72a.09.09,0,0,0,0,.05A.29.29,0,0,0,9,1,.4.4,0,0,1,9.12.66.51.51,0,0,1,9.39.54a.43.43,0,0,1,.29.07.38.38,0,0,1,.11.11A.56.56,0,0,1,9.84.8H9.78a.2.2,0,0,0-.12.1l.13,0a.24.24,0,0,1,.12,0A.22.22,0,0,1,10,1s0,.08,0,.13a.26.26,0,0,0,0-.15A.25.25,0,0,0,10,.82L9.89.8a.49.49,0,0,0,0-.12A.34.34,0,0,0,9.82.56a.26.26,0,0,1,.29-.05.35.35,0,0,1,.2.29h0l-.12.29.26-.2h0a.19.19,0,0,1,.24,0,.21.21,0,0,1,.07.25h0l-.16.22.25-.09h0a.13.13,0,0,1,.17.1.17.17,0,0,1,0,.22h0l-.16,0,.12.09a2.73,2.73,0,0,1,.08.61c0,.36-.41.65-2.44.88h0a1.4,1.4,0,0,0-.89.7A2.31,2.31,0,0,1,7,4.69H7a.12.12,0,0,1,0,.09.16.16,0,0,1-.15.13H6.76l-.08,0h0a9.2,9.2,0,0,1-1,.46,2.34,2.34,0,0,0-.55.27v0a.25.25,0,0,1-.23.26c0,.08-.1.18-.16.29l-.13.24a.33.33,0,0,1,0,.15A.38.38,0,0,1,4.29,7c-.4.64-.92,1.26-1.41,1s-.43-.88-.27-1.6A3.92,3.92,0,0,0,2.76,5.12ZM11,1.72Zm.52,13.52-.08.08a3.07,3.07,0,0,1-1.4.86h0l-.37.11h0l-.55.12h0l-.29,0h0l-.13,0H8.65l-.19,0H6.65l-.18,0H6.41l-.13,0h0l-.27,0H6l-.41-.09h0l-.13,0h0l-.37-.11H5a3.25,3.25,0,0,1-1.4-.86l-.08-.08a1.31,1.31,0,0,1-.3-.8V8.32a1,1,0,0,0,.4-.18v5.72a.59.59,0,0,0,0,.23.45.45,0,0,0,.39.27h0a.48.48,0,0,0,.44-.5V7.08c.16-.25.3-.5.42-.72a2.38,2.38,0,0,1,.27-.46.83.83,0,0,1,.28-.17,11.67,11.67,0,0,0,2,.13c2.45,0,3.46-.68,4-1.19A2.78,2.78,0,0,1,9.76,5.78a.61.61,0,0,1,.57.54.42.42,0,0,0-.44-.27c-.32,0-.9.32-.9,1.28v6.82c0,.47.33.94.69.94s.62-.43.72-.68a1.54,1.54,0,0,1-.35.86,3.69,3.69,0,0,0,1.81-1.49v.66A1.31,1.31,0,0,1,11.56,15.24ZM4.11,7.72l.24-.32v6.49a.23.23,0,0,1-.24.26Zm10-1.49c.56.18.88,1.16.9,2.76a4.35,4.35,0,0,1-1.4,3.38,2,2,0,0,1-1,.57.69.69,0,0,1-.45-.33V7.55C12.91,6.55,13.62,6.07,14.12,6.23Zm-2.47,7.25c0,.61-.24.71-.44.71s-.35-.41-.35-.41.07.29.33.29.33-.37.33-.71V6.55c0-.78-.31-1.3-.61-.57,0-.11.12-.65.45-.65s.29.33.29.44Zm-.86-1.83c0-.3,0-.6,0-.9v-.9c0-.6,0-1.2,0-1.8s0-1.21.07-1.81c0,.6,0,1.2.06,1.81s0,1.2,0,1.8v.9c0,.3,0,.6,0,.9,0,.6,0,1.21-.07,1.81C10.82,12.86,10.81,12.25,10.79,11.65Zm-1.3-5c.07-.1.08-.2.26-.23a.35.35,0,0,1,.46.37v6.9c0,.43-.13.76-.42.85a.33.33,0,0,1-.35-.07s.38,0,.38-.54V7.57C9.82,6.79,9.81,6.7,9.49,6.65Zm2.09-3.94a.67.67,0,0,1-.15.28,1.46,1.46,0,0,1-.69.39,6.16,6.16,0,0,1,.18.61A6,6,0,0,1,11,4.8a1.7,1.7,0,0,1-.35.19,4.25,4.25,0,0,0-.24-1.5L10,3.6a3.43,3.43,0,0,1,.15.63,7.18,7.18,0,0,1,0,.93,1.47,1.47,0,0,0,.33-.09s-.68.5-3,.54A10.5,10.5,0,0,1,6,5.53c.2-.08.44-.19.73-.34h.09a.44.44,0,0,0,.42-.32,3.09,3.09,0,0,0,.67-.75,1.14,1.14,0,0,1,.72-.59c2-.24,2.68-.53,2.67-1.17v0c.18.12.28.25.28.37Z" transform="translate(-2.19 -0.2)"/><path class="cls-1" d="M14.19,5.7l.08,0,.09,0,.15.08a1.28,1.28,0,0,1,.5.48A2.39,2.39,0,0,1,15.3,7a4.65,4.65,0,0,1,.16.72c0,.25.06.5.07.75a14.9,14.9,0,0,1,0,1.5,10.84,10.84,0,0,0,.11-1.51,2.41,2.41,0,0,0,0-.38c0-.13,0-.25,0-.38a4.94,4.94,0,0,0-.14-.75,2.82,2.82,0,0,0-.3-.72,1.47,1.47,0,0,0-.59-.54,1.4,1.4,0,0,0-.78-.12,2.2,2.2,0,0,0-.72.25,3.07,3.07,0,0,1,.73-.11A1.47,1.47,0,0,1,14.19,5.7Z" transform="translate(-2.19 -0.2)"/><path class="cls-1" d="M9.18,16.21a4.5,4.5,0,0,0,2.48-1.28,3.64,3.64,0,0,0,.08-.64C10.69,15.87,8.47,16.1,6.44,16A4.08,4.08,0,0,0,9.18,16.21Z" transform="translate(-2.19 -0.2)"/><path class="cls-1" d="M4.25,15.59A3.37,3.37,0,0,0,6,16.1a2.67,2.67,0,0,1-.92-.43,1.6,1.6,0,0,1-.5-.78.86.86,0,0,1-1.11-.48,2.08,2.08,0,0,0,0,.38A2,2,0,0,0,4.25,15.59Z" transform="translate(-2.19 -0.2)"/><path class="cls-1" d="M5.7,15.05a.65.65,0,0,0,.64-.65V7A.65.65,0,0,0,5.05,7V14.4A.65.65,0,0,0,5.7,15.05ZM5.55,7a.26.26,0,0,1,.26-.26h0A.26.26,0,0,1,6.07,7v7.32a.26.26,0,0,1-.26.26h0a.26.26,0,0,1-.26-.26Z" transform="translate(-2.19 -0.2)"/><path class="cls-1" d="M7.56,15.28h0a.87.87,0,0,0,.28,0h0l.08-.05c.35-.18.47-.29.54-.82,0,.47,0,.84-.32,1.12a1.75,1.75,0,0,1-.93.22,5.8,5.8,0,0,0,2.29-.23H9.44c-.42,0-.74-.64-.74-1.13V7.17a1.35,1.35,0,0,1,.66-1.29c-.4.09-.89.17-1.48.25A.92.92,0,0,1,8.26,7h0a.69.69,0,0,0-.7-.63h0a.7.7,0,0,0-.7.7v7.51A.7.7,0,0,0,7.56,15.28Zm0-8.66A.51.51,0,0,1,8,7.17V14.5a.5.5,0,0,1-.46.54.42.42,0,0,1-.3-.13.62.62,0,0,0,.37-.6V7.36a.64.64,0,0,0-.38-.61A.46.46,0,0,1,7.57,6.62Z" transform="translate(-2.19 -0.2)"/><path class="cls-1" d="M7.5,17.15H7.14l-.36,0L6.06,17a5.89,5.89,0,0,1-.71-.13,2.73,2.73,0,0,0,.69.26,4.48,4.48,0,0,0,.72.11h.37l.37,0a2.54,2.54,0,0,0,.72-.13Q7.86,17.17,7.5,17.15Z" transform="translate(-2.19 -0.2)"/><path class="cls-1" d="M8.88,3.8l-.6,0,.08.4a2.21,2.21,0,0,1,0,.68l0,.45h.32A1,1,0,0,0,9,5.31a5.25,5.25,0,0,0,0-.79A3.78,3.78,0,0,0,8.88,3.8Z" transform="translate(-2.19 -0.2)"/><path class="cls-1" d="M7,3.45a.36.36,0,0,0,0-.14A.24.24,0,0,1,7,3.42a.12.12,0,0,1-.1.05.21.21,0,0,1-.11,0,.15.15,0,0,1-.09-.06l-.05,0,0,.06a.41.41,0,0,1-.11.07.29.29,0,0,1-.13,0,.23.23,0,0,1-.12-.06.12.12,0,0,1,0-.09v-.1l-.09,0a.71.71,0,0,1-.2,0,.2.2,0,0,1-.16-.07A.26.26,0,0,1,5.64,3a.25.25,0,0,1,.05-.2.24.24,0,0,0-.12.2.37.37,0,0,0,.07.25.39.39,0,0,0,.23.13.54.54,0,0,0,.18,0,.36.36,0,0,0,.08.12.41.41,0,0,0,.19.09.37.37,0,0,0,.21,0,.42.42,0,0,0,.14-.09l.08,0a.42.42,0,0,0,.16,0A.29.29,0,0,0,7,3.45Z" transform="translate(-2.19 -0.2)"/><path class="cls-1" d="M4.34,3.2A.27.27,0,0,0,4.43,3a.32.32,0,0,1-.31.22.37.37,0,0,1-.18,0A.28.28,0,0,1,3.83,3L3.8,3,3.73,3a.68.68,0,0,1-.27.07A.21.21,0,0,1,3.26,3a.35.35,0,0,1,0-.25.25.25,0,0,1,.19-.19.21.21,0,0,0-.16,0,.26.26,0,0,0-.11.14.47.47,0,0,0,0,.17.61.61,0,0,0,.05.18.35.35,0,0,0,.14.13.43.43,0,0,0,.19,0,.59.59,0,0,0,.26-.07.57.57,0,0,0,.15.12.57.57,0,0,0,.18,0,.3.3,0,0,0,0,.1.25.25,0,0,0,.12.11.24.24,0,0,0,.14.05H4.5a.61.61,0,0,1-.13,0,.18.18,0,0,1-.1-.07.21.21,0,0,1-.06-.1.17.17,0,0,1,0-.07A.3.3,0,0,0,4.34,3.2Z" transform="translate(-2.19 -0.2)"/><path class="cls-1" d="M3,5.24a.34.34,0,0,0,.26.17.41.41,0,0,0,.26-.11.46.46,0,0,1-.24,0,.21.21,0,0,1-.14-.12.23.23,0,0,1,0-.18.31.31,0,0,1,.14-.19H3.15l-.07,0L3,4.86l0,.07A.31.31,0,0,0,3,5.24Z" transform="translate(-2.19 -0.2)"/><path class="cls-1" d="M3.26,6.78a.14.14,0,1,0,0-.28.14.14,0,1,0,0,.28Z" transform="translate(-2.19 -0.2)"/><path class="cls-1" d="M4.66,5.59a.21.21,0,0,0-.21-.21.21.21,0,0,0-.21.21.21.21,0,0,0,.21.21A.22.22,0,0,0,4.66,5.59Z" transform="translate(-2.19 -0.2)"/><circle class="cls-1" cx="1.58" cy="6.55" r="0.12"/><path class="cls-1" d="M3.78,7.32a.2.2,0,0,0-.19-.19.19.19,0,0,0-.19.19.18.18,0,0,0,.19.19A.19.19,0,0,0,3.78,7.32Z" transform="translate(-2.19 -0.2)"/><path class="cls-1" d="M3.32,7.78a.1.1,0,0,0,.1-.1.1.1,0,0,0-.1-.11.11.11,0,0,0-.11.11A.11.11,0,0,0,3.32,7.78Z" transform="translate(-2.19 -0.2)"/><circle class="cls-1" cx="2.25" cy="5.88" r="0.08"/><circle class="cls-1" cx="2.66" cy="5.47" r="0.12"/><path class="cls-1" d="M5.22,5.22A.13.13,0,0,0,5.1,5.1.12.12,0,0,0,5,5.22a.12.12,0,0,0,.12.12A.12.12,0,0,0,5.22,5.22Z" transform="translate(-2.19 -0.2)"/><path class="cls-1" d="M5.36,4.63a.15.15,0,0,0,0,.3.15.15,0,0,0,0-.3Z" transform="translate(-2.19 -0.2)"/><path class="cls-1" d="M5.77,5.21a.11.11,0,0,0,0-.22.11.11,0,1,0,0,.22Z" transform="translate(-2.19 -0.2)"/><path class="cls-1" d="M6.45,4.79a.11.11,0,0,0-.11-.11.11.11,0,0,0,0,.22A.11.11,0,0,0,6.45,4.79Z" transform="translate(-2.19 -0.2)"/><path class="cls-1" d="M6.63,4.66a.13.13,0,0,0,.26,0,.13.13,0,0,0-.26,0Z" transform="translate(-2.19 -0.2)"/><path class="cls-1" d="M6.88,4.05a.16.16,0,0,0-.15.16.15.15,0,0,0,.3,0A.16.16,0,0,0,6.88,4.05Z" transform="translate(-2.19 -0.2)"/><circle class="cls-1" cx="2.06" cy="6.41" r="0.19"/><path class="cls-1" d="M7.74,1.7a.23.23,0,0,0-.1.07.33.33,0,0,0-.17-.12.44.44,0,0,0-.3,0,.4.4,0,0,0-.24.18.39.39,0,0,0,0,.28A.54.54,0,0,1,7,1.86a.35.35,0,0,1,.2-.1.37.37,0,0,1,.21,0,.29.29,0,0,1,.15.14l.07.13.07-.13a.35.35,0,0,1,.1-.11.29.29,0,0,1,.31,0A.22.22,0,0,1,8.18,2a.19.19,0,0,0,0-.2A.31.31,0,0,0,8,1.67.34.34,0,0,0,7.74,1.7Z" transform="translate(-2.19 -0.2)"/><path class="cls-1" d="M9.85,1.65a1.18,1.18,0,0,1,.25,0,.52.52,0,0,1,.21,0,.29.29,0,0,1,.15.12.76.76,0,0,1,.1.22.38.38,0,0,0,0-.28.34.34,0,0,0-.21-.21.39.39,0,0,0-.28,0A.42.42,0,0,0,9.85,1.65Z" transform="translate(-2.19 -0.2)"/></svg>